<svg xmlns="http://www.w3.org/2000/svg" width="79" height="24" viewBox="0 0 79 24"><g><g><g><path fill="#889099" d="M24.525 8.079c.221.37.333.89.333 1.549a4.52 4.52 0 0 1-.27 1.55c-.178.49-.426.94-.737 1.333a3.615 3.615 0 0 1-1.112.94c-.43.233-.89.351-1.37.351h-.229l-.146.001a2.208 2.208 0 0 1-.446-.043 5.614 5.614 0 0 0-.218-.04l1.37-5.662c.25-.218.533-.364.843-.434.331-.07.572-.103.757-.103.593 0 1.005.188 1.225.558zm-.728 7.715a6.797 6.797 0 0 0 2.16-1.486 7.008 7.008 0 0 0 1.444-2.211c.351-.841.529-1.748.529-2.697a6.42 6.42 0 0 0-.228-1.735 4.01 4.01 0 0 0-.704-1.405 3.496 3.496 0 0 0-1.207-.951c-.483-.233-1.063-.351-1.724-.351-.309 0-.61.035-.894.103a5.04 5.04 0 0 0-.83.29L23.632.02l-3.219.496-3.592 15.02c.402.193.832.346 1.278.454.445.11.875.193 1.278.25.405.054.764.085 1.068.091.271.006.51.01.656.01.967 0 1.874-.185 2.697-.548z"/></g><g><path fill="#889099" d="M33.583 3.7a2.148 2.148 0 0 0 1.141-1.105c.118-.253.177-.528.177-.818 0-.52-.175-.912-.52-1.167A1.92 1.92 0 0 0 33.22.228c-.29 0-.566.055-.822.165a2.176 2.176 0 0 0-1.142 1.106c-.117.256-.176.53-.176.815 0 .523.175.916.52 1.168.345.254.736.382 1.164.382.296 0 .564-.054.819-.165zm-2.315 12.353l2.617-10.866H30.79l-2.596 10.867h3.074z"/></g><g><path fill="#889099" d="M36.578 2.48l3.22-.496-.791 3.203h3.447l-.622 2.52h-3.427l-.913 3.801a4.28 4.28 0 0 0-.145.887c-.015.277.02.514.103.714.082.2.231.354.446.463.215.111.522.167.924.167.331 0 .654-.031.967-.094.31-.06.625-.147.943-.258l.23 2.356c-.416.152-.866.283-1.35.392-.485.11-1.06.165-1.724.165-.955 0-1.696-.14-2.223-.422-.527-.283-.899-.67-1.122-1.159-.22-.487-.318-1.05-.29-1.682.029-.635.124-1.302.29-2.005l2.037-8.551z"/></g><g><path fill="#889099" d="M42.319 11.716c0-.936.152-1.819.457-2.646a6.495 6.495 0 0 1 1.31-2.17 6.123 6.123 0 0 1 2.066-1.466c.808-.358 1.712-.538 2.709-.538a7.18 7.18 0 0 1 1.671.176c.493.118.938.272 1.34.464l-1.06 2.399a10.17 10.17 0 0 0-.86-.3c-.298-.091-.661-.135-1.09-.135-1.026 0-1.837.352-2.441 1.053-.601.702-.904 1.646-.904 2.831 0 .703.152 1.27.458 1.705.304.434.866.65 1.681.65a5.714 5.714 0 0 0 2.16-.433l.23 2.458c-.389.15-.817.286-1.288.404-.47.115-1.032.174-1.683.174-.858 0-1.585-.125-2.18-.371-.594-.25-1.086-.582-1.473-1.003a3.773 3.773 0 0 1-.842-1.478 6 6 0 0 1-.261-1.774z"/></g><g><path fill="#889099" d="M58.714 8.079c.22.385.333.928.333 1.612 0 .422-.06.877-.176 1.353a4.9 4.9 0 0 1-.532 1.312c-.234.397-.527.73-.871.99-.344.262-.75.394-1.205.394-.577 0-.983-.194-1.205-.578-.22-.387-.331-.93-.331-1.613 0-.427.059-.882.175-1.352.12-.477.298-.918.531-1.313.234-.396.527-.73.871-.991.345-.26.75-.392 1.204-.392.58 0 .985.195 1.206.578zm-.072 7.635a6.126 6.126 0 0 0 1.92-1.622c.511-.66.903-1.41 1.164-2.23a8.255 8.255 0 0 0 .393-2.482c0-.66-.09-1.268-.27-1.806a4.034 4.034 0 0 0-.798-1.416 3.576 3.576 0 0 0-1.35-.93c-.548-.22-1.188-.33-1.902-.33-.978 0-1.858.211-2.615.629a6.394 6.394 0 0 0-1.93 1.624 7.044 7.044 0 0 0-1.196 2.23 8 8 0 0 0-.403 2.482c0 .665.09 1.273.268 1.805.181.544.45 1.02.8 1.415.35.397.8.71 1.338.93.54.219 1.182.33 1.911.33 1.006 0 1.905-.212 2.67-.63z"/></g><g><path fill="#889099" d="M67.784 3.7c.251-.11.478-.259.674-.443.198-.193.35-.41.465-.663.118-.26.178-.534.178-.817 0-.52-.175-.913-.52-1.167a1.922 1.922 0 0 0-1.164-.382c-.29 0-.565.055-.819.165a2.286 2.286 0 0 0-.675.444 2.159 2.159 0 0 0-.468.662 1.945 1.945 0 0 0-.177.815c0 .522.175.915.521 1.168a1.92 1.92 0 0 0 1.162.382c.298 0 .567-.054.823-.165zm-2.316 12.353l2.616-10.866h-3.097l-2.595 10.867h3.076z"/></g><g><path fill="#889099" d="M70.297 5.682c.234-.068.494-.15.778-.238a11.802 11.802 0 0 1 2.14-.433c.436-.05.932-.073 1.484-.073 1.62 0 2.738.47 3.355 1.406.616.937.723 2.218.323 3.842l-1.413 5.868H73.87l1.37-5.744c.083-.359.15-.706.197-1.045a2.46 2.46 0 0 0-.01-.887 1.06 1.06 0 0 0-.383-.62c-.203-.159-.51-.238-.926-.238-.4 0-.808.043-1.224.126l-2.015 8.408h-3.095z"/></g><g><path fill="#889099" d="M34.85 21.066c.044.336.082.667.113.986h-1.525a29.004 29.004 0 0 1 1.26-1.995c.058.344.109.684.152 1.01zm.883 2.553c-.056-.498-.1-.893-.141-1.241a45.322 45.322 0 0 0-.293-2.073 27.443 27.443 0 0 0-.17-.928h-.584a50.648 50.648 0 0 0-2.64 4.243h.653l.603-1.09h1.858c.02.163.038.338.055.536.018.2.036.376.056.555h.603z"/></g><g><path fill="#889099" d="M37.914 23.711c-.267 0-.502-.039-.705-.116a1.351 1.351 0 0 1-.507-.33 1.372 1.372 0 0 1-.305-.518 2.142 2.142 0 0 1-.102-.683c0-.367.059-.718.176-1.053.117-.334.283-.63.498-.887.216-.257.475-.462.779-.616.303-.153.641-.23 1.015-.23.32 0 .575.033.766.099.191.065.327.126.41.183l-.247.49a1.77 1.77 0 0 0-.96-.257c-.283 0-.537.066-.763.2a1.912 1.912 0 0 0-.572.514c-.156.21-.275.447-.357.71a2.613 2.613 0 0 0-.123.78c0 .796.347 1.194 1.04 1.194.148 0 .28-.01.397-.03.117-.02.22-.045.31-.071.09-.027.17-.056.24-.089l.185-.086.074.515c-.05.028-.114.059-.194.091a2.46 2.46 0 0 1-.28.093 2.983 2.983 0 0 1-.775.097z"/></g><g><path fill="#889099" d="M41.371 23.711c-.266 0-.501-.039-.704-.116a1.351 1.351 0 0 1-.508-.33 1.372 1.372 0 0 1-.305-.518 2.142 2.142 0 0 1-.101-.683c0-.367.058-.718.175-1.053.117-.334.283-.63.499-.887.215-.257.475-.462.778-.616.304-.153.642-.23 1.015-.23.32 0 .576.033.767.099.19.065.327.126.409.183l-.246.49a1.77 1.77 0 0 0-.96-.257c-.283 0-.538.066-.763.2a1.912 1.912 0 0 0-.573.514c-.156.21-.275.447-.357.71a2.613 2.613 0 0 0-.123.78c0 .796.347 1.194 1.04 1.194.148 0 .28-.01.397-.03.117-.02.22-.045.311-.071.09-.027.17-.056.24-.089l.185-.086.073.515c-.049.028-.113.059-.193.091a2.46 2.46 0 0 1-.28.093 2.983 2.983 0 0 1-.776.097z"/></g><g><path fill="#889099" d="M43.024 23.62l1.021-4.243h2.517l-.117.495H44.52l-.308 1.28h1.711l-.117.484h-1.704l-.364 1.487h2.068l-.117.496z"/></g><g><path fill="#889099" d="M48.971 19.985c.172.1.259.269.259.5 0 .218-.046.391-.139.529a.977.977 0 0 1-.354.322 1.573 1.573 0 0 1-.486.162c-.18.03-.358.046-.529.046h-.388l.406-1.684c.062-.016.24-.024.53-.024.294 0 .53.05.701.15zm-2.135 3.634l.381-1.579h.425c.332 0 .636-.032.905-.095.27-.063.504-.16.695-.29.192-.131.342-.3.446-.5.104-.2.157-.442.157-.72 0-.357-.127-.633-.379-.82-.25-.187-.628-.281-1.123-.281-.171 0-.355.006-.547.019a3.376 3.376 0 0 0-.548.079l-1.009 4.187h.597z"/></g><g><path fill="#889099" d="M53.486 19.377l-.117.495h-1.286l-.905 3.747h-.597l.905-3.747H50.2l.116-.495h3.17z"/></g><g><path fill="#889099" d="M52.932 23.62l1.021-4.243h2.517l-.117.495h-1.926l-.307 1.28h1.71l-.117.484H54.01l-.363 1.487h2.067l-.117.496z"/></g><g><path fill="#889099" d="M59.19 20.136c.209.2.314.482.314.84 0 .315-.05.61-.147.878-.099.266-.24.498-.419.69-.18.194-.402.347-.661.454-.26.108-.555.162-.878.162-.171 0-.3-.003-.381-.01a1.091 1.091 0 0 1-.166-.02l.788-3.27c.06-.016.247-.024.553-.024.452 0 .788.1.997.3zm-.643 3.306c.36-.146.662-.346.895-.594a2.36 2.36 0 0 0 .518-.861c.11-.322.165-.662.165-1.013 0-.5-.157-.902-.467-1.197-.31-.294-.787-.443-1.415-.443-.169 0-.348.006-.548.018-.195.012-.379.04-.548.08l-.99 4.12c.152.04.33.07.529.085.21.017.393.026.56.026.501 0 .94-.075 1.3-.22z"/></g><g><path fill="#889099" d="M64.723 23.62h-.597l.474-1.972h-1.976l-.474 1.971h-.597l1.022-4.242h.597l-.431 1.775h1.976l.43-1.775h.598l-1.022 4.242z"/></g><g><path fill="#889099" d="M65.664 23.62l1.022-4.243h2.517l-.118.495H67.16l-.308 1.28h1.711l-.117.484H66.74l-.363 1.487h2.068l-.118.496h-2.663z"/></g><g><path fill="#889099" d="M71.59 19.983c.174.097.262.262.262.49 0 .21-.047.383-.14.511a.94.94 0 0 1-.356.3c-.144.071-.307.12-.483.144a3.806 3.806 0 0 1-.517.037h-.363l.388-1.605c.062-.016.24-.024.529-.024.279 0 .508.05.68.147zm-2.114 3.636l.4-1.672h.474c.054 0 .107 0 .16-.002.052-.002.103-.006.155-.01h.005a8.581 8.581 0 0 1 .367.753 22.565 22.565 0 0 1 .365.93h.61a8.04 8.04 0 0 0-.172-.504 12.101 12.101 0 0 0-.406-.943 6.096 6.096 0 0 0-.173-.327c.38-.106.678-.282.89-.524.21-.24.316-.544.316-.903 0-.353-.135-.625-.4-.808-.265-.183-.63-.275-1.083-.275-.167 0-.35.006-.548.018a3.252 3.252 0 0 0-.547.079l-1.01 4.188h.597z"/></g><g><path fill="#889099" d="M72.512 23.62l1.022-4.243h2.517l-.118.495h-1.926l-.308 1.28h1.711l-.117.484h-1.705l-.362 1.487h2.067l-.118.496h-2.663z"/></g><g><path fill="#889099" d="M10.066 7.003a.756.756 0 0 0-.08-.603c-.299-.482-1.155-.67-1.615-.772a7.719 7.719 0 0 1-.186-.042l-.448 1.788c.042.01.091.024.147.039.306.08.768.203 1.2.203.55 0 .88-.206.982-.613zm-.279 2.885a.798.798 0 0 0-.088-.635c-.347-.563-1.4-.799-1.965-.925-.087-.02-.161-.036-.223-.052l-.494 1.972.174.045c.36.095.96.253 1.489.253.625 0 .998-.221 1.107-.658zm-3.064 1.44l-.37 1.47-.899-.223.373-1.488-.192-.05a36.18 36.18 0 0 0-.45-.115l-1.17-.29.447-1.026c.005.002.616.162.654.162a.453.453 0 0 0 .107.014c.185 0 .271-.142.306-.226l.589-2.349.022.006.073.018c-.03-.012-.056-.02-.079-.027l-.009-.002L6.12 7.2l.42-1.676c.012-.187-.052-.43-.42-.522-.008-.01-.413-.106-.654-.16l.24-.957 1.24.312c.161.041.326.079.48.114l.096.021.369-1.471.899.223-.361 1.443c.301.067.523.12.72.168l.36-1.433.9.223-.368 1.473c1.371.47 1.945 1.125 1.804 2.059-.108.724-.494 1.166-1.15 1.315.918.476 1.181 1.166.827 2.173-.32.912-.956 1.337-2 1.337a6.49 6.49 0 0 1-1.176-.128L7.973 13.2l-.9-.223.368-1.466c-.23-.057-.465-.117-.717-.185zm9.707-3.146c0-4.5-3.68-8.16-8.203-8.16-4.522 0-8.201 3.66-8.201 8.16s3.679 8.16 8.201 8.16c4.523 0 8.203-3.66 8.203-8.16z"/></g></g></g></svg>