<svg xmlns="http://www.w3.org/2000/svg" width="66" height="52" viewBox="0 0 66 52"><g><g><g><path fill="#889099" d="M37.285 51.154v-5.372h1.157v.652a1.584 1.584 0 0 1 1.417-.787l-.023-.022c.284 0 .565.05.832.145l-.36 1.124a1.898 1.898 0 0 0-.73-.135c-.742 0-1.125.495-1.125 1.383v3.012zm16.235 0v-5.372h1.158v.652a1.583 1.583 0 0 1 1.416-.787l-.022-.022c.283 0 .565.05.831.145l-.359 1.124a1.898 1.898 0 0 0-.73-.135c-.742 0-1.125.495-1.125 1.383v3.012zm-42.272-2.967c0-.91-.383-1.416-1.18-1.416A1.266 1.266 0 0 0 8.753 48.2v2.978h-1.18v-2.99c0-.91-.394-1.416-1.17-1.416a1.258 1.258 0 0 0-1.315 1.427v2.956h-1.18v-5.372h1.17v.663c.345-.526.944-.83 1.573-.798a1.971 1.971 0 0 1 1.775.955 2.082 2.082 0 0 1 1.889-.955 2.001 2.001 0 0 1 2.113 2.136v3.371l-1.18.023zm4.918 3.08a2.81 2.81 0 1 1 0-5.62 2.039 2.039 0 0 1 1.685.787v-.652h1.17v5.35h-1.17v-.652a2.038 2.038 0 0 1-1.685.787zm32.96 0a2.81 2.81 0 0 1 0-5.62 2.04 2.04 0 0 1 1.686.787v-.652h1.168v5.35h-1.168v-.652a2.04 2.04 0 0 1-1.687.787zm10.874 0a2.81 2.81 0 0 1 0-5.62 2.038 2.038 0 0 1 1.686.787v-2.81h1.124v7.508h-1.124v-.652a2.037 2.037 0 0 1-1.686.787zm-26.396 0a2.81 2.81 0 1 1-.08-5.62l.018.01c1.506 0 2.551 1.125 2.551 2.811v.45h-3.99a1.49 1.49 0 0 0 1.607 1.314 2.558 2.558 0 0 0 1.563-.561l.562.865a3.264 3.264 0 0 1-2.231.73zm8.241-.772a2.714 2.714 0 0 1-.812-2.038v-.023a2.714 2.714 0 0 1 2.866-2.81 2.807 2.807 0 0 1 1.933.641l-.561.944a2.356 2.356 0 0 0-1.405-.483 1.725 1.725 0 0 0 0 3.439c.507-.005 1-.175 1.405-.483l.561.944a2.807 2.807 0 0 1-1.933.64 2.715 2.715 0 0 1-2.054-.77zm-21.712.098l.562-.911c.516.382 1.145.58 1.787.562.798 0 1.226-.237 1.226-.652 0-.304-.305-.472-.945-.562l-.562-.078c-1.202-.17-1.855-.708-1.855-1.585 0-1.068.888-1.72 2.248-1.72a4.02 4.02 0 0 1 2.192.562l-.517.944a3.464 3.464 0 0 0-1.686-.461c-.64 0-1.023.27-1.023.63 0 .359.405.46.91.528l.563.078c1.169.169 1.877.586 1.877 1.608 0 1.022-.9 1.753-2.45 1.753a3.876 3.876 0 0 1-2.327-.697zm8.542.719c-1.383 0-1.866-.742-1.866-1.99V46.85h-1.09v-1.067h1.067v-1.63h1.181v1.63h1.922l.011 1.067h-1.91V49.3c0 .54.213.9.775.9.365-.013.72-.118 1.034-.304l.337 1a2.742 2.742 0 0 1-1.452.416h-.01zm35.58-.203a.53.53 0 0 1 .117-.584.559.559 0 0 1 .405-.152h-.006a.557.557 0 0 1 .377.152.522.522 0 0 1-.175.866.527.527 0 0 1-.213.045.561.561 0 0 1-.506-.327z"/></g><g opacity=".4"><path fill="#889099" d="M25.522 20.751a20.198 20.198 0 0 1 7.728-15.91C24.955-1.678 13.043-.729 5.885 7.023c-7.157 7.75-7.157 19.7 0 27.45 7.158 7.752 19.07 8.701 27.365 2.182a20.198 20.198 0 0 1-7.728-15.904z"/></g><g><path fill="#889099" d="M65.985 20.751A20.231 20.231 0 0 1 33.25 36.655a20.231 20.231 0 0 0 0-31.814 20.231 20.231 0 0 1 32.735 15.904z"/></g><g opacity=".65"><path fill="#889099" d="M33.43 37.18c-4.866-3.75-8-9.634-8-16.25 0-6.617 3.134-12.501 8-16.25 4.865 3.749 8 9.633 8 16.25 0 6.616-3.135 12.5-8 16.25z"/></g><g><path fill="#889099" d="M64.052 33.283v-.651h.264v-.135h-.669v.135h.286v.651zm1.18.006l.118-.006v-.786h-.202l-.236.561-.236-.561h-.18v.786h.146v-.59l.22.512h.15l.22-.511z"/></g></g></g></svg>