<svg xmlns="http://www.w3.org/2000/svg" width="74" height="18" viewBox="0 0 74 18"><g><g><g><path fill="#889099" d="M73.117 1.405h-1.129c-.722 0-1.259.485-1.674 1.077l-1.117 1.592-.002.002-2.42 3.446-2.097-2.986c-.01-.015-.015-.028-.026-.044L63.24 2.486c-.417-.591-.958-1.075-1.68-1.075h-1.047c-.723 0-1.191.483-.773 1.073l1.422 2.01.01.012 4.046 5.713v6.466c0 .725.591 1.316 1.314 1.315l.49-.001c.722 0 1.314-.595 1.314-1.319v-6.468l4.31-6.083c.013-.018.03-.035.043-.053l1.127-1.596c.418-.591.025-1.075-.698-1.075"/></g><g><path fill="#889099" d="M25.954 9.18l4.06-3.907 2.87-2.762c.513-.494-.04-1.106-.743-1.106h-1.543c-.703 0-1.058.406-1.57.903L26.022 5.22l-.007.008-1.934 1.875V4.978h-.008c.002-.028.008-.056.008-.084V2.723c0-.724-.574-1.318-1.277-1.318h-.574c-.703 0-1.278.594-1.278 1.318v2.17c0 .029.006.057.008.085h-.008v11.705c0 .724.575 1.317 1.278 1.317h.574c.703 0 1.277-.593 1.277-1.317v-5.241l2.756 2.835h.003l2.712 2.793c.497.511.84.93 1.543.93h1.546c.703 0 1.002-.857.505-1.368L25.954 9.18"/></g><g><path fill="#889099" d="M55.25 6.1l1.68 4.096c.066.161.06.314-.018.43-.077.115-.217.179-.394.179h-3.025c-.175 0-.315-.064-.393-.179-.077-.115-.084-.268-.018-.43l1.67-4.095c.066-.163.155-.252.25-.252.094 0 .183.089.249.25zm7.48 11.54c.155-.231.168-.537.036-.86l-.171-.423h.008L57.326 3.244l-.247-.616c-.271-.674-1.084-1.223-1.812-1.223h-.524c-.73 0-1.54.55-1.809 1.225l-.244.614h-.01L47.43 16.288l-.198.49c-.131.324-.117.63.039.862.156.232.437.36.789.36h1.175c.76 0 1.094-.624 1.32-1.235l.178-.477h.007l1.062-2.824h6.423l.086.226.065.135.95 2.532.152.408c.21.563.627 1.235 1.424 1.235h1.04c.352 0 .632-.128.788-.36z"/></g><g><path fill="#889099" d="M43.575 4.041c.93 0 1.65.219 2.138.65.239.211.414.464.536.772.121.311.183.674.183 1.079 0 .408-.062.774-.183 1.089a1.98 1.98 0 0 1-.536.773c-.487.43-1.207.649-2.138.649h-1.723a.666.666 0 0 1-.671-.66V4.7c0-.363.301-.659.671-.659zm-2.394 12.642v-4.994h2.394c1.99 0 3.53-.436 4.577-1.296.534-.439.94-.989 1.208-1.635.266-.64.4-1.387.4-2.216 0-.823-.134-1.564-.4-2.202a4.164 4.164 0 0 0-1.207-1.633c-1.05-.864-2.59-1.302-4.578-1.302h-4.259c-.74 0-1.34.591-1.34 1.318v13.96c0 .726.6 1.317 1.34 1.317h.524c.74 0 1.341-.59 1.341-1.317z"/></g><g><path fill="#889099" d="M7.923 4.425l.002-.002c.444-.556.946-.957 1.535-1.225.592-.271 1.25-.403 2.01-.403.76 0 1.415.132 2.005.403.585.268 1.083.667 1.525 1.22.887 1.112 1.336 2.669 1.336 4.626 0 1.95-.45 3.504-1.336 4.616-.442.552-.94.951-1.525 1.22-.589.27-1.244.402-2.005.402-.762 0-1.419-.131-2.01-.402-.585-.267-1.087-.667-1.535-1.225-.513-.633-.887-1.44-1.11-2.398l-.206-1.383a27.545 27.545 0 0 1-.014-1.373l.158-1.383c.207-1.08.6-1.988 1.17-2.697zm9.5 11.112c1.473-1.62 2.22-3.805 2.22-6.493 0-2.7-.747-4.887-2.22-6.503C15.94.907 13.944.078 11.49.078h-.04C8.987.078 6.985.907 5.5 2.54c-1.09 1.192-1.787 2.711-2.073 4.515L3.294 8.47v.01l-.004.065a9.55 9.55 0 0 0-.016.5c0 .323.016.632.03.865v.01l.18 1.417c.318 1.676.995 3.093 2.015 4.21C6.987 17.173 8.989 18 11.45 18h.04c2.453 0 4.45-.828 5.934-2.463z"/></g><g><path fill="#889099" d="M11.427 8.043H.655l1.013-1.991H12.44l-1.013 1.991"/></g><g><path fill="#889099" d="M9.409 12.026H0l1.067-1.991h9.409l-1.068 1.991"/></g></g></g></svg>